<svg preserveAspectRatio="none" width="100%" height="100%" overflow="visible" style="display: block;" viewBox="0 0 293 52" fill="none" xmlns="http://www.w3.org/2000/svg" class="transition-none">
<g id="Logo">
<path id="Vector" d="M100.009 0C107.573 11.5396 115.064 22.9893 122.574 34.421C122.61 34.421 122.646 34.403 122.682 34.403C122.682 29.4241 122.682 24.4272 122.682 19.4843C123.257 19.2686 129.688 19.2506 130.389 19.4483C130.389 19.7179 130.389 20.0055 130.389 20.2931C130.389 28.7411 130.389 37.1711 130.389 45.6191C130.389 46.1403 130.497 46.5717 130.784 46.9851C131.682 48.3152 132.563 49.6633 133.443 51.0114C133.605 51.263 133.766 51.5327 134 51.8922C133.623 51.9281 133.371 51.964 133.12 51.964C129.652 51.964 126.203 51.964 122.736 51.982C122.232 51.982 121.927 51.8382 121.64 51.4068C119.681 48.3692 117.687 45.3495 115.711 42.3298C114.256 40.1009 112.783 37.8901 111.327 35.6792C109.692 33.1988 108.076 30.7003 106.459 28.2198C105.021 26.0449 103.584 23.87 102.147 21.6772C101.518 20.7065 100.889 19.7359 100.243 18.7653C100.117 18.5856 100.009 18.4058 99.8473 18.1721C98.8412 19.7179 97.8531 21.2098 96.883 22.7017C94.9786 25.6136 93.0563 28.5254 91.1519 31.4373C88.6727 35.2119 86.2114 38.9865 83.7321 42.7612C81.8457 45.6371 79.9593 48.513 78.0909 51.3889C77.8034 51.8382 77.4801 52 76.9411 52C73.5995 51.982 70.2399 51.982 66.8983 51.982C66.6468 51.982 66.3773 51.9461 66 51.9101C77.3543 34.5648 88.6367 17.3453 100.009 0Z" fill="var(--fill-0, white)"/>
<path id="Vector_2" d="M97 0.0192335C96.7849 0.36155 96.6774 0.559733 96.534 0.757916C93.3615 5.62241 90.1891 10.4869 87.0525 15.3694C86.7478 15.8559 86.4431 16 85.8874 16C69.4874 15.982 53.1054 15.982 36.7054 15.982C29.7869 15.982 22.8505 16 15.932 16C15.6811 16 15.4122 16 15 16C15.4839 15.2073 15.8783 14.5407 16.3084 13.8921C18.4772 10.4869 20.6638 7.08176 22.8326 3.67661C23.4778 2.6857 24.141 1.69478 24.7325 0.667833C25.0372 0.163367 25.3956 -0.0167998 25.9692 0.00121681C35.2536 0.0192335 44.5379 0.0192335 53.8402 0.0192335C67.8922 0.0192335 81.9443 0.0192335 95.9963 0.0192335C96.301 0.0192335 96.5878 0.0192335 97 0.0192335Z" fill="#17BADC"/>
<path id="Vector_3" d="M85 18.0182C84.499 18.8 84.1232 19.4364 83.7116 20.0545C80.8307 24.5273 77.9498 29 75.0867 33.4909C74.8004 33.9273 74.4783 34 74.031 34C61.6483 34 49.2657 34 36.883 34C27.2381 34 17.5754 34 7.93049 34C7.67997 34 7.41156 34 7 34C7.51893 33.1818 7.93049 32.4909 8.35995 31.8182C9.97041 29.3273 11.563 26.8182 13.1734 24.3273C14.4439 22.3636 15.7144 20.4 16.9849 18.4364C17.1638 18.1455 17.4143 18 17.7543 18C17.9511 18 18.148 18 18.3627 18C40.265 18 62.1672 18 84.0695 18C84.32 18.0182 84.5884 18.0182 85 18.0182Z" fill="#1EA1DF"/>
<path id="Vector_4" d="M0 51.9279C0.160244 51.6216 0.249268 51.4414 0.356098 51.2613C2.81317 47.3874 5.27024 43.4955 7.74512 39.6216C8.3861 38.6126 9.04488 37.6036 9.66805 36.5586C9.8639 36.2162 10.1132 36.036 10.4871 36.036C10.7363 36.036 10.9678 36 11.2171 36C31.568 36 51.919 36 72.27 36C72.4837 36 72.6973 36 73 36C72.9288 36.1982 72.911 36.3243 72.8576 36.4144C70.2759 40.3964 67.6941 44.3964 65.1302 48.3784C64.4537 49.4234 63.7771 50.4685 63.1361 51.5495C62.9759 51.8198 62.7978 51.9279 62.4951 51.9099C62.3171 51.8919 62.139 51.9099 61.961 51.9099C47.7883 51.9099 33.5978 51.9099 19.4251 51.9279C13.3002 51.9279 7.17537 51.982 1.05049 52C0.712195 51.982 0.409512 51.9459 0 51.9279Z" fill="#2D95EC"/>
<path id="Vector_5" d="M177.446 28.4399C178.638 30.5831 179.785 32.6621 181 34.8482C180.663 34.9125 180.46 34.9768 180.258 34.9768C179.471 34.9982 178.683 34.9554 177.919 34.9982C177.446 35.0197 177.154 34.8482 176.929 34.4195C176.119 32.8978 175.265 31.3976 174.478 29.8758C174.23 29.4043 173.938 29.19 173.375 29.2329C172.768 29.2757 172.161 29.2329 171.486 29.2329C171.464 29.5972 171.441 29.8973 171.441 30.1759C171.441 31.4833 171.441 32.7907 171.441 34.0981C171.441 34.9554 171.419 34.9768 170.497 34.9768C169.889 34.9768 169.26 34.9554 168.652 34.9768C168.202 34.9768 168 34.8053 168 34.3552C168.022 33.5622 168 32.7478 168 31.9548C168 27.9683 168 23.9604 168 19.974C168 19.0095 168 19.0095 169.035 19.0095C170.856 19.0095 172.656 18.9881 174.478 19.0095C175.782 19.031 177.042 19.2667 178.166 19.9311C179.223 20.5312 179.92 21.41 180.168 22.5673C180.64 24.8392 180.123 26.961 177.874 28.1612C177.761 28.2041 177.649 28.2898 177.446 28.4399ZM171.441 26.4895C171.869 26.4895 172.183 26.4895 172.476 26.4895C173.218 26.4895 173.983 26.5324 174.725 26.4681C176.007 26.3395 176.817 25.4393 176.839 24.1962C176.862 22.8674 176.052 21.9029 174.702 21.7958C173.78 21.71 172.858 21.7743 171.936 21.7529C171.599 21.7529 171.419 21.9029 171.419 22.2244C171.441 23.5961 171.441 24.9892 171.441 26.4895Z" fill="var(--fill-0, white)"/>
<path id="Vector_6" d="M220.637 28.2011C218.525 28.2011 216.498 28.2011 214.407 28.2011C214.386 28.5228 214.364 28.8016 214.364 29.1019C214.364 30.7748 214.364 32.4692 214.364 34.1421C214.364 34.9357 214.321 34.9571 213.567 34.9786C212.898 34.9786 212.23 34.9786 211.562 34.9786C211.195 34.9786 211.023 34.807 211.001 34.4638C211.001 34.2708 211.001 34.0992 211.001 33.9062C211.001 29.2949 211.001 24.6836 211.001 20.0724C211.001 19.9437 211.001 19.815 211.001 19.6649C210.98 19.193 211.195 19 211.67 19C212.51 19.0214 213.373 19 214.343 19C214.343 21.1662 214.343 23.2252 214.343 25.3485C216.477 25.3485 218.503 25.3485 220.594 25.3485C220.616 25.0268 220.659 24.748 220.659 24.4692C220.659 22.9249 220.659 21.3807 220.659 19.8365C220.659 19.0643 220.702 19.0214 221.478 19.0214C222.275 19.0214 223.073 19.0214 223.935 19.0214C223.957 19.4075 224 19.6863 224 19.9651C224 24.6622 224 29.3378 224 34.0349C224 35 224 35 223.008 35C222.534 35 222.038 35 221.564 35C220.659 35 220.637 34.9786 220.637 34.0349C220.637 32.4048 220.637 30.7748 220.637 29.1662C220.637 28.8445 220.637 28.5657 220.637 28.2011Z" fill="var(--fill-0, white)"/>
<path id="Vector_7" d="M268 26.9025C268 24.5618 268 22.1997 268 19.859C268 19.0429 268.042 19 268.844 19C270.11 19 271.355 19 272.621 19C276.714 19 279.605 21.6843 279.942 25.8073C280.069 27.4179 280.027 29.007 279.415 30.5316C278.275 33.3877 276.102 34.7835 273.148 34.9553C271.692 35.0412 270.215 34.9768 268.738 34.9768C268.042 34.9768 268 34.9339 268 34.1823C268 31.7557 268 29.3291 268 26.9025ZM271.376 21.8131C271.376 25.3134 271.376 28.7278 271.376 32.2496C271.903 32.2496 272.368 32.2281 272.832 32.2496C274.477 32.357 275.87 31.3262 276.334 29.6297C276.819 27.8259 276.819 26.0006 276.292 24.1968C275.912 22.8868 275.005 22.0493 273.676 21.8346C272.958 21.7058 272.178 21.8131 271.376 21.8131Z" fill="var(--fill-0, white)"/>
<path id="Vector_8" d="M140 30.571C141.141 30.571 142.154 30.571 143.126 30.571C143.189 30.6601 143.253 30.7047 143.253 30.7493C143.506 32.9776 144.984 33.2005 146.463 33.2227C146.716 33.2227 146.991 33.1782 147.244 33.1113C148.026 32.9553 148.533 32.4428 148.659 31.752C148.807 30.8384 148.554 30.2145 147.815 29.7911C147.287 29.4791 146.716 29.2786 146.146 29.0335C145.343 28.6992 144.52 28.3872 143.717 28.053C142.872 27.6964 142.154 27.1616 141.521 26.4709C139.937 24.7105 140.148 21.8582 142.006 20.3875C144.224 18.6271 147.709 18.5379 150.011 20.1424C151.088 20.9 151.743 21.9696 151.954 23.3289C152.06 24.0197 151.933 24.1534 151.257 24.1757C150.624 24.1979 149.99 24.1757 149.378 24.1757C148.976 24.1757 148.723 24.0642 148.681 23.5963C148.596 22.5713 147.54 21.8136 146.674 21.8582C146.104 21.8805 145.512 21.8805 144.963 22.0364C144.309 22.2147 143.886 22.7272 143.802 23.4626C143.717 24.2202 144.097 24.755 144.689 25.067C145.428 25.4458 146.209 25.6909 146.949 26.0252C148.026 26.5154 149.145 26.9611 150.138 27.6073C151.321 28.3649 151.954 29.5683 151.996 31.0612C152.06 33.1113 151.278 34.5375 149.462 35.3174C146.906 36.387 144.372 36.231 142.006 34.6266C140.929 33.8912 140.275 32.7994 140.063 31.4401C140.021 31.195 140.021 30.9275 140 30.571Z" fill="var(--fill-0, white)"/>
<path id="Vector_9" d="M196 34.9985C194.846 34.9985 193.845 34.9985 192.843 34.9985C192.451 34.9985 192.343 34.7409 192.255 34.4403C192.016 33.7317 191.755 33.0231 191.537 32.3145C191.406 31.928 191.21 31.7562 190.775 31.7562C189.229 31.7777 187.684 31.7777 186.16 31.7562C185.746 31.7562 185.528 31.9065 185.398 32.3145C185.18 33.0016 184.897 33.6673 184.679 34.3544C184.549 34.8053 184.309 35.02 183.808 34.9985C182.894 34.9771 181.98 34.9985 181 34.9985C181.044 34.7194 181.065 34.5261 181.109 34.3758C182.959 29.4587 184.81 24.5201 186.639 19.603C186.813 19.1521 187.074 18.9803 187.553 19.0018C188.141 19.0232 188.75 19.0232 189.338 19.0018C189.817 18.9803 190.057 19.1736 190.231 19.6245C191.341 22.6091 192.473 25.5723 193.605 28.5354C194.302 30.3606 194.977 32.1857 195.673 34.0108C195.761 34.2685 195.848 34.5476 196 34.9985ZM190.383 28.9863C189.752 27.0968 189.164 25.3361 188.554 23.5753C188.467 23.5753 188.402 23.5753 188.315 23.5753C187.727 25.3575 187.139 27.1183 186.53 28.9863C187.836 28.9863 189.012 28.9863 190.383 28.9863Z" fill="var(--fill-0, white)"/>
<path id="Vector_10" d="M285.444 28.1275C285.444 29.545 285.444 30.8336 285.444 32.2081C285.778 32.2295 286.089 32.251 286.378 32.251C288.311 32.251 290.244 32.251 292.178 32.251C292.978 32.251 293 32.2725 293 33.0671C293 33.4752 293 33.8617 293 34.2698C292.978 34.9356 292.956 34.9785 292.222 35C290.178 35 288.133 35 286.089 35C285.044 35 284 35 282.933 35C282.644 35 282.356 34.957 282 34.9356C282 29.6094 282 24.3906 282 19.0644C282.311 19.043 282.578 19 282.844 19C285.911 19 288.978 19 292.022 19C292.933 19 292.933 19.0215 292.933 19.902C292.933 20.2671 292.933 20.6537 292.933 21.0188C292.911 21.6846 292.867 21.7275 292.156 21.7275C290.222 21.7275 288.289 21.7275 286.356 21.7275C286.067 21.7275 285.756 21.749 285.4 21.7705C285.4 22.9732 285.4 24.0899 285.4 25.3141C287.489 25.5289 289.6 25.2497 291.733 25.4644C291.733 26.3235 291.733 27.1181 291.733 28.0201C289.711 28.149 287.622 28.0201 285.444 28.1275Z" fill="var(--fill-0, white)"/>
<path id="Vector_11" d="M240 24.8758C238.892 24.8758 237.955 24.8758 237.017 24.8535C236.89 24.8535 236.762 24.6976 236.677 24.564C236.613 24.475 236.634 24.3636 236.591 24.2523C236.144 22.5822 235.398 21.9364 233.864 21.8919C232.267 21.8474 231.244 22.5822 230.754 24.141C230.669 24.4304 230.584 24.7199 230.562 25.0317C230.413 26.8354 230.328 28.6168 230.648 30.3982C231.159 33.293 233.545 33.4489 235.185 32.8031C235.803 32.5582 236.208 32.0238 236.421 31.3557C236.527 30.9994 236.634 30.6209 236.741 30.1978C237.763 30.1978 238.786 30.1978 239.893 30.1978C239.851 30.6432 239.851 31.0217 239.787 31.4003C239.34 33.4712 238.083 34.8072 236.229 35.5198C234.653 36.121 233.012 36.1656 231.393 35.6089C229.625 35.0076 228.389 33.7384 227.75 31.9347C226.792 29.1957 226.77 26.39 227.58 23.6288C228.538 20.3777 231.478 18.574 234.695 19.0862C237.017 19.4647 238.764 20.6226 239.574 23.0053C239.766 23.562 239.851 24.1632 240 24.8758Z" fill="var(--fill-0, white)"/>
<path id="Vector_12" d="M252 19.026C253.245 19.026 254.293 19.026 255.342 19.026C255.757 19.026 255.844 19.3687 255.997 19.6472C256.849 21.4679 257.679 23.2886 258.53 25.0879C258.661 25.3449 258.793 25.602 258.989 25.9875C259.164 25.6876 259.295 25.5163 259.382 25.3235C260.256 23.4814 261.129 21.6607 261.959 19.8185C262.222 19.2188 262.571 18.9617 263.248 19.0046C264.1 19.0474 264.973 19.026 266 19.026C265.825 19.4116 265.738 19.6686 265.607 19.9256C264.122 22.7959 262.615 25.6662 261.108 28.5151C260.846 29.0077 260.736 29.5004 260.736 30.0359C260.758 31.4282 260.758 32.7991 260.736 34.1914C260.736 34.9197 260.671 34.9625 259.95 34.9839C259.295 35.0054 258.64 35.0054 258.006 34.9839C257.373 34.9625 257.307 34.9197 257.307 34.2985C257.285 32.8419 257.329 31.3639 257.285 29.9074C257.264 29.479 257.176 29.0077 256.98 28.6222C255.516 25.7733 254.009 22.9459 252.524 20.097C252.371 19.7971 252.24 19.5187 252 19.026Z" fill="var(--fill-0, white)"/>
<path id="Vector_13" d="M157.713 21.7493C156.492 21.7493 155.358 21.7493 154.223 21.7493C153.002 21.7493 153.002 21.7493 153.002 20.5272C153.002 18.8333 152.874 19.0049 154.48 19.0049C157.991 19.0049 161.502 19.0049 165.014 19.0049C165.999 19.0049 165.999 19.0049 165.999 19.9697C165.999 20.3342 165.999 20.7202 165.999 21.0847C166.02 21.5564 165.806 21.7493 165.335 21.7493C164.221 21.7279 163.108 21.7493 161.995 21.7493C161.16 21.7493 161.138 21.7708 161.138 22.607C161.138 26.3163 161.138 30.0042 161.138 33.7135C161.138 33.9279 161.117 34.1424 161.138 34.3568C161.181 34.8499 160.924 35 160.453 35C159.79 34.9786 159.126 35 158.462 35C157.863 34.9786 157.777 34.9142 157.777 34.2924C157.756 32.8773 157.777 31.4622 157.777 30.0685C157.777 27.5599 157.777 25.0727 157.777 22.5641C157.777 22.3068 157.734 22.0924 157.713 21.7493Z" fill="var(--fill-0, white)"/>
<path id="Vector_14" d="M196.006 21.7641C196.006 20.8832 195.983 20.1742 196.029 19.4652C196.052 19.3148 196.307 19.1215 196.516 19.0355C196.655 18.9711 196.863 19.014 197.025 19.014C201.034 19.014 205.019 19.014 209.027 19.014C210 19.014 210 19.0355 210 19.8949C210 20.2601 210 20.6469 210 21.0121C209.977 21.6996 209.954 21.7426 209.212 21.7641C208.031 21.7855 206.849 21.7641 205.667 21.7641C205.412 21.7641 205.158 21.807 204.833 21.8285C204.81 22.1723 204.787 22.4945 204.787 22.7953C204.787 26.5551 204.787 30.3149 204.787 34.0747C204.787 34.9985 204.787 34.9985 203.767 34.9985C203.142 34.9985 202.493 34.9771 201.868 34.9985C201.335 35.02 201.126 34.8052 201.149 34.3325C201.149 34.1177 201.149 33.9028 201.149 33.688C201.149 30.0571 201.149 26.4262 201.149 22.7953C201.149 22.473 201.149 22.1723 201.149 21.7641C199.412 21.7641 197.79 21.7641 196.006 21.7641Z" fill="var(--fill-0, white)"/>
<path id="Vector_15" d="M245.22 32.2581C247.541 32.2581 249.695 32.2581 251.995 32.2581C251.995 33.0958 252.016 33.8261 251.974 34.5564C251.974 34.7067 251.744 34.8786 251.597 34.9645C251.472 35.0289 251.284 34.986 251.137 34.986C248.377 34.986 245.638 34.986 242.878 34.986C242.021 34.986 242 34.9645 242 34.0838C242 29.3369 242 24.59 242 19.8431C242 19.6068 242.021 19.3705 242.063 19.0054C243.025 19.0054 243.945 18.9839 244.865 19.0268C244.99 19.0268 245.157 19.2416 245.199 19.392C245.262 19.6068 245.22 19.8645 245.22 20.1008C245.22 23.7738 245.22 27.4682 245.22 31.1412C245.22 31.4634 245.22 31.7856 245.22 32.2581Z" fill="var(--fill-0, white)"/>
<path id="Vector_16" d="M167.617 49.6568C168.194 48.2406 168.771 46.8244 169.348 45.4082C169.839 44.1795 170.373 42.9715 170.843 41.7219C171.035 41.2429 171.291 40.993 171.825 41.0555C172.188 41.0971 172.551 41.0555 173 41.0555C173 44.7209 173 48.3031 173 51.9061C172.829 51.9478 172.68 51.9894 172.53 51.9894C171.633 52.0311 171.59 51.9894 171.59 51.1147C171.59 48.6572 171.59 46.1996 171.59 43.6588C171.078 44.8876 170.565 46.0747 170.074 47.2618C169.518 48.6363 168.942 49.9901 168.386 51.3646C168.216 51.7811 168.002 51.9894 167.511 51.9894C167.062 51.9894 166.849 51.7811 166.699 51.4063C165.759 49.1153 164.819 46.8453 163.88 44.5752C163.794 44.3877 163.709 44.2211 163.452 44.0545C163.452 44.3877 163.452 44.7418 163.452 45.075C163.474 47.116 163.495 49.157 163.495 51.198C163.495 51.9269 163.41 51.9894 162.683 51.9686C162.064 51.9478 162 51.9061 162 51.2813C162 48.074 162 44.8667 162 41.6594C162 41.2013 162.15 41.0138 162.641 41.0138C163.88 40.9722 163.901 40.9513 164.371 42.0968C165.289 44.3252 166.186 46.5745 167.105 48.803C167.212 49.0529 167.318 49.3236 167.447 49.5735C167.511 49.6568 167.553 49.6568 167.617 49.6568Z" fill="var(--fill-0, white)"/>
<path id="Vector_17" d="M272.581 41.0587C273.101 41.0587 273.461 41.0587 273.821 41.0587C274.021 41.6406 274.061 50.8684 273.901 51.8036C272.901 52.1569 272.621 52.0738 272.101 51.2217C270.741 49.0394 269.381 46.8364 268 44.6542C267.86 44.4256 267.7 44.1969 267.54 43.9891C267.48 44.0099 267.42 44.0099 267.38 44.0307C267.38 46.6494 267.38 49.2473 267.38 51.9075C266.86 51.9075 266.46 51.9075 266 51.9075C266 48.2705 266 44.7165 266 41.1418C267.22 40.8716 267.32 40.9132 267.94 41.9316C269.301 44.1138 270.661 46.3168 272.041 48.4991C272.181 48.7069 272.321 48.894 272.601 49.081C272.581 46.4208 272.581 43.7813 272.581 41.0587Z" fill="var(--fill-0, white)"/>
<path id="Vector_18" d="M222.55 47.65C222.529 48.0651 222.508 48.3141 222.508 48.5632C222.508 49.414 222.508 50.2649 222.508 51.1157C222.508 51.8628 221.965 52.1949 221.277 51.8836C221.172 51.8213 221.068 51.676 221.026 51.5308C220.984 51.3855 221.005 51.2195 221.005 51.0742C221.005 48.0028 221.005 44.9522 221.005 41.8808C221.005 41.03 221.005 41.03 221.861 41.0092C222.821 41.0092 223.781 40.9885 224.742 41.0092C225.097 41.0092 225.472 41.0507 225.827 41.1337C227.393 41.445 228.186 42.2544 228.436 43.7071C228.666 45.0975 228.123 46.2804 226.871 47.0482C226.766 47.1105 226.662 47.1935 226.474 47.318C227.288 48.8122 228.102 50.2856 229 51.9043C228.416 51.9043 227.977 51.9666 227.581 51.8836C227.372 51.8421 227.184 51.5723 227.059 51.3648C226.474 50.3271 225.911 49.2895 225.368 48.2311C225.159 47.8161 224.888 47.6085 224.408 47.6293C223.823 47.6708 223.218 47.65 222.55 47.65ZM222.55 42.3374C222.487 43.6863 222.466 44.973 222.55 46.3011C223.531 46.3011 224.408 46.3841 225.284 46.2804C226.328 46.1766 226.933 45.4088 226.975 44.3919C226.996 43.3335 226.453 42.4827 225.451 42.3789C224.512 42.2336 223.552 42.3374 222.55 42.3374Z" fill="var(--fill-0, white)"/>
<path id="Vector_19" d="M285 44.2573C284.472 44.2779 284.164 44.3189 283.878 44.3189C283.547 44.3189 283.349 44.1753 283.217 43.8675C282.623 42.5337 282.051 42.2054 280.532 42.2259C279.256 42.2464 278.375 42.8004 277.979 44.0111C277.473 45.5501 277.429 47.1506 277.957 48.6691C278.727 50.9673 281.104 50.9673 282.799 50.3312C283.019 50.2491 283.283 49.9413 283.327 49.7361C283.393 49.1205 283.349 48.4844 283.349 47.7662C282.469 47.7252 281.655 47.7047 280.818 47.6636C280.818 47.2532 280.818 46.9249 280.818 46.494C282.183 46.494 283.503 46.494 284.89 46.494C284.912 46.8018 284.934 47.048 284.934 47.2943C284.934 48.0535 284.89 48.8333 284.956 49.5925C285.044 50.4338 284.604 50.9468 283.878 51.2956C282.381 52.0138 280.818 52.2395 279.212 51.706C277.671 51.2136 276.725 50.1465 276.329 48.7101C275.866 47.0685 275.888 45.4064 276.417 43.8059C276.967 42.1848 278.199 41.1999 280.048 41.0357C281.831 40.8716 283.437 41.2409 284.428 42.8209C284.648 43.1903 284.758 43.6623 285 44.2573Z" fill="var(--fill-0, white)"/>
<path id="Vector_20" d="M141.021 41.0502C142.374 41.0502 143.642 40.9244 144.868 41.0712C146.897 41.3018 148.186 42.5391 148.715 44.4893C149.095 45.8524 149.095 47.2154 148.715 48.5785C148.207 50.4239 147.003 51.6611 145.058 51.9128C143.748 52.0805 142.395 51.9547 141 51.9547C141.021 48.3478 141.021 44.7409 141.021 41.0502ZM142.501 50.6965C143.346 50.6965 144.128 50.7804 144.889 50.6755C145.819 50.5497 146.559 50.0045 146.939 49.1447C147.658 47.4461 147.616 45.7056 146.982 43.986C146.897 43.7553 146.707 43.5456 146.538 43.3359C145.417 42.0148 143.959 42.2874 142.501 42.3503C142.501 45.1813 142.501 47.9074 142.501 50.6965Z" fill="var(--fill-0, white)"/>
<path id="Vector_21" d="M251 46.7619C250.883 47.3757 250.813 48.1941 250.555 48.9716C249.946 50.854 248.096 52.0202 245.965 51.9997C243.881 51.9793 242.03 50.813 241.422 48.9921C240.859 47.3553 240.859 45.6775 241.422 44.0203C242.241 41.6673 244.817 40.4806 247.487 41.2172C249.501 41.7492 250.415 43.12 250.789 44.8182C250.906 45.3911 250.93 45.9844 251 46.7619ZM249.337 46.6187C249.22 45.8208 249.197 45.1046 248.986 44.409C248.728 43.5292 248.166 42.7926 247.089 42.4653C245.309 41.9333 243.6 42.6699 243.061 44.3067C242.569 45.7594 242.616 47.253 243.061 48.7466C243.108 48.8898 243.178 49.033 243.272 49.1762C243.881 50.2811 244.911 50.7926 246.316 50.6903C247.674 50.6084 248.541 49.9537 248.892 48.8489C249.126 48.0918 249.197 47.3143 249.337 46.6187Z" fill="var(--fill-0, white)"/>
<path id="Vector_22" d="M240 46.5708C239.874 47.3696 239.81 48.189 239.579 48.9673C239.031 50.8313 237.471 51.9579 235.533 51.9989C233.699 52.0399 232.014 50.9338 231.424 49.1312C231.15 48.2504 231.023 47.2877 231.002 46.3659C230.981 45.3827 231.108 44.379 231.55 43.4573C232.414 41.7162 233.973 40.8559 235.933 41.0197C237.703 41.1836 239.115 42.3512 239.579 44.1332C239.81 44.9321 239.874 45.7514 240 46.5708ZM238.483 46.5503C238.356 45.7514 238.314 44.9321 238.082 44.1537C237.766 43.0476 236.755 42.3512 235.659 42.2897C234.437 42.2283 233.447 42.7608 232.983 43.9079C232.309 45.649 232.33 47.4311 233.025 49.1927C233.067 49.2951 233.109 49.377 233.173 49.4589C233.721 50.3602 234.563 50.7289 235.617 50.688C236.65 50.647 237.387 50.2168 237.893 49.3156C238.356 48.4348 238.377 47.513 238.483 46.5503Z" fill="var(--fill-0, white)"/>
<path id="Vector_23" d="M159.986 46.589C160.05 47.5952 159.901 48.5808 159.497 49.5049C158.817 51.0861 157.522 51.8869 155.822 51.9896C154.144 52.0923 152.784 51.4352 151.892 50.0183C151.807 49.8951 151.722 49.7513 151.659 49.6076C150.809 47.513 150.745 45.4185 151.68 43.365C152.445 41.6812 153.868 40.9419 155.737 41.0035C157.543 41.0651 158.796 41.9687 159.497 43.5704C159.943 44.556 160.028 45.5622 159.986 46.589ZM158.605 46.5274C158.456 45.6854 158.393 44.8846 158.18 44.1453C157.946 43.324 157.373 42.7285 156.502 42.441C154.994 41.9481 153.507 42.6052 152.976 44.0632C152.423 45.6238 152.508 47.2256 152.891 48.8067C152.933 48.9505 152.997 49.0942 153.082 49.2379C153.634 50.3263 154.548 50.7986 155.78 50.7164C156.927 50.6548 157.755 50.1004 158.095 49.0531C158.35 48.2112 158.435 47.3282 158.605 46.5274Z" fill="var(--fill-0, white)"/>
<path id="Vector_24" d="M184.002 48.6197C184.404 48.6197 184.7 48.6197 184.974 48.6197C185.291 48.6197 185.418 48.7625 185.524 49.048C185.947 50.2107 186.517 50.6187 187.785 50.6391C188.25 50.6391 188.736 50.6391 189.18 50.5371C189.92 50.3739 190.363 49.8639 190.427 49.2316C190.49 48.5177 190.194 47.9874 189.518 47.7018C188.905 47.4366 188.229 47.2531 187.616 46.9879C186.876 46.6819 186.073 46.4372 185.418 45.9884C183.939 44.9685 183.897 43.0104 185.27 41.8681C186.792 40.583 189.772 40.7462 191.082 42.2148C191.441 42.6228 191.652 43.1735 191.864 43.6835C192.012 44.0506 191.821 44.2954 191.357 44.3158C190.638 44.3362 190.575 44.3158 190.321 43.6223C190.025 42.8064 189.433 42.3576 188.567 42.3168C187.975 42.2964 187.341 42.3168 186.792 42.5004C185.651 42.9084 185.439 44.3158 186.433 45.0093C186.94 45.3765 187.616 45.5193 188.208 45.7844C189.053 46.1312 189.962 46.376 190.701 46.8451C192.603 48.069 192.371 50.5983 190.3 51.5162C188.609 52.2709 186.919 52.1281 185.334 51.1898C184.488 50.6187 183.96 49.8231 184.002 48.6197Z" fill="var(--fill-0, white)"/>
<path id="Vector_25" d="M182.924 52C180.283 52 177.69 52 175 52C175 48.3192 175 44.6808 175 41C177.617 41 180.186 41 182.803 41C182.852 41.2327 182.876 41.4019 182.9 41.5712C182.949 42.0365 182.731 42.2269 182.173 42.2269C180.695 42.2058 179.217 42.2269 177.738 42.2269C177.448 42.2269 177.157 42.2269 176.769 42.2269C176.769 43.3904 176.769 44.4692 176.769 45.675C177.278 45.675 177.738 45.675 178.223 45.675C179.12 45.675 180.041 45.675 180.937 45.675C182.076 45.675 182.149 45.7173 182.149 46.3096C182.149 46.9231 182.076 46.9654 180.986 46.9654C179.895 46.9654 178.829 46.9654 177.738 46.9654C177.448 46.9654 177.157 46.9865 176.793 47.0077C176.793 48.2558 176.793 49.4404 176.793 50.7096C177.157 50.7308 177.472 50.7731 177.787 50.7731C179.144 50.7731 180.501 50.7731 181.858 50.7731C183.07 50.7731 183.094 50.8154 182.924 52Z" fill="var(--fill-0, white)"/>
<path id="Vector_26" d="M216 48.4809C215.8 49.7061 215.312 50.7066 214.157 51.3396C211.427 52.8507 208.141 51.6664 207.32 48.828C206.898 47.419 206.92 45.9488 207.231 44.5194C207.83 41.7015 210.539 40.4151 213.447 41.2523C214.912 41.6811 216.022 43.1717 215.911 44.6011C215.556 44.6215 215.179 44.6624 214.801 44.642C214.646 44.6215 214.49 44.4786 214.379 44.3357C214.291 44.254 214.313 44.0906 214.268 43.9681C213.935 43.0288 213.38 42.3345 212.226 42.2528C210.938 42.1507 209.828 42.4366 209.273 43.6005C208.963 44.254 208.807 45.0095 208.696 45.7242C208.563 46.8269 208.63 47.95 209.074 49.0118C209.74 50.6045 211.76 51.2375 213.314 50.2982C213.691 50.0736 213.98 49.6244 214.157 49.2364C214.601 48.2358 214.646 48.1746 216 48.4809Z" fill="var(--fill-0, white)"/>
<path id="Vector_27" d="M254.531 45.8941C256.106 45.8941 257.594 45.8941 259.169 45.8941C259.191 46.3152 259.212 46.6731 259.234 47.1363C257.637 47.1363 256.106 47.1363 254.487 47.1363C254.487 48.8207 254.487 50.3788 254.487 52C253.941 52 253.503 52 253 52C253 48.3575 253 44.7571 253 41.1146C253.175 41.0725 253.35 41.0094 253.525 41.0094C255.45 41.0094 257.375 40.9883 259.3 41.0094C259.934 41.0094 260 41.1146 260 41.6831C260 42.1253 259.825 42.2937 259.366 42.2937C258.141 42.2726 256.916 42.2937 255.691 42.2937C255.319 42.2937 254.947 42.2937 254.509 42.2937C254.531 43.4938 254.531 44.6308 254.531 45.8941Z" fill="var(--fill-0, white)"/>
<path id="Vector_28" d="M197.772 42.1778C197.752 42.6405 197.732 42.956 197.732 43.2505C197.732 45.9216 197.732 48.5717 197.732 51.2428C197.732 51.9579 197.672 52 197.015 52C196.357 52 196.297 51.9579 196.277 51.2428C196.277 48.5717 196.277 45.9216 196.277 43.2505C196.277 42.935 196.258 42.6405 196.238 42.2199C195.52 42.2199 194.863 42.2199 194.205 42.2199C194.026 42.2199 193.866 42.2199 193.687 42.2199C193.029 42.1989 192.97 42.1358 193.01 41.4417C193.01 41.3155 193.049 41.1893 193.089 41C195.72 41 198.33 41 201 41C201 41.3576 201 41.7151 201 42.1778C199.924 42.1778 198.908 42.1778 197.772 42.1778Z" fill="var(--fill-0, white)"/>
<path id="Vector_29" d="M261.062 41C261.717 41 262.263 41 262.918 41C262.945 41.2922 263 41.5427 263 41.7932C263 44.8824 263 47.9508 263 51.04C263 51.854 262.4 52.188 261.39 51.8958C261.226 51.854 261.089 51.7079 261.035 51.5618C260.98 51.4157 261.007 51.2487 261.007 51.1026C261.007 47.9925 261.007 44.8824 261.007 41.7723C260.98 41.5218 261.035 41.2714 261.062 41Z" fill="var(--fill-0, white)"/>
<path id="Vector_30" d="M204.836 52C204.256 52 203.731 52 203.233 52C202.984 51.4077 202.901 42.1635 203.15 41C203.703 41 204.256 41 204.809 41C205.03 41.5712 205.085 50.9 204.836 52Z" fill="var(--fill-0, white)"/>
</g>
</svg>
